<svg width="16" height="16" viewBox="0 0 16 16" fill="none" xmlns="http://www.w3.org/2000/svg">
<g clip-path="url(#clip0_16_2)">
<rect width="16" height="16" fill="white"/>
<rect width="16" height="16" fill="url(#paint0_linear_16_2)"/>
<path d="M1.634 10C1.486 10 1.35 9.964 1.226 9.892C1.102 9.82 1.004 9.722 0.932 9.598C0.86 9.474 0.824 9.338 0.824 9.19V5.68H1.544V9.166C1.544 9.198 1.554 9.224 1.574 9.244C1.598 9.264 1.624 9.274 1.652 9.274H4.31C4.338 9.274 4.362 9.264 4.382 9.244C4.406 9.224 4.418 9.198 4.418 9.166V5.68H5.144V9.19C5.144 9.338 5.106 9.474 5.03 9.598C4.958 9.722 4.86 9.82 4.736 9.892C4.616 9.964 4.482 10 4.334 10H1.634ZM5.74475 10V9.832L7.41275 7.84L5.74475 5.848V5.68H6.54875L7.89275 7.27L9.23075 5.68H10.0348V5.848L8.36075 7.84L10.0348 9.826V10H9.23075L7.88675 8.41L6.54875 10H5.74475ZM10.6739 10V5.686H14.1839C14.3319 5.686 14.4659 5.724 14.5859 5.8C14.7099 5.872 14.8079 5.97 14.8799 6.094C14.9559 6.214 14.9939 6.348 14.9939 6.496V7.684C14.9939 7.828 14.9559 7.962 14.8799 8.086C14.8079 8.21 14.7099 8.308 14.5859 8.38C14.4659 8.452 14.3319 8.488 14.1839 8.488L11.3939 8.494V10H10.6739ZM11.5019 7.762H14.1599C14.1879 7.762 14.2119 7.752 14.2319 7.732C14.2559 7.712 14.2679 7.686 14.2679 7.654V6.514C14.2679 6.486 14.2559 6.462 14.2319 6.442C14.2119 6.418 14.1879 6.406 14.1599 6.406H11.5019C11.4739 6.406 11.4479 6.418 11.4239 6.442C11.4039 6.462 11.3939 6.486 11.3939 6.514V7.654C11.3939 7.686 11.4039 7.712 11.4239 7.732C11.4479 7.752 11.4739 7.762 11.5019 7.762Z" fill="#BEFF6F"/>
</g>
<defs>
<linearGradient id="paint0_linear_16_2" x1="7.41333" y1="3.30667" x2="13.0116" y2="13.9579" gradientUnits="userSpaceOnUse">
<stop stop-color="#070939"/>
<stop offset="1" stop-color="#44489A"/>
</linearGradient>
<clipPath id="clip0_16_2">
<rect width="16" height="16" fill="white"/>
</clipPath>
</defs>
</svg>
